<svg width="169" height="169" fill="none" xmlns="http://www.w3.org/2000/svg"><rect width="169" height="169" rx="84.5" fill="#864AF9"/><path d="M27.168 107.792c.062.176.117.325.162.447l.09.283a103.441 103.441 0 0 0 2.114 5.971c1.275 3.271 3.37 8.145 6.03 11.495 3.842 4.837 13.096 15.164 26.886 16.463 9.784.921 18.237-.658 32.544-3.33 2.774-.518 5.768-1.078 9.034-1.668 11.283-2.038 18.531-5.181 23.562-8.629a35.79 35.79 0 0 0 5.661-4.813c.488-.506.956-1.018 1.304-1.398l.263-.287c.196-.213.335-.36.446-.473.104-.106.15-.147.153-.15 1.838-1.614 3.346-3.953 4.439-5.965a42.303 42.303 0 0 0 3.237-7.793c1.619-5.349 2.841-13.329-.833-20.249l-7.066 3.752 7.066-3.752c-.578-2.055-1.454-4.776-1.771-10.312-.301-5.25-.698-12.133-3.495-20.518-5.911-17.722-17.782-24.103-26.178-28.381-10.353-5.275-23.131-5.824-40.33-1.147-9.763 2.656-17.727 8.468-23.039 13.247a76.98 76.98 0 0 0-6.329 6.402 61.678 61.678 0 0 0-2.077 2.495l-.255.272c-.372.4-.878.963-1.478 1.674a61.167 61.167 0 0 0-4.452 6.002c-3.281 5.033-7.065 12.428-8.313 21.283-1.179 8.36-.481 15.707.502 20.961a59.2 59.2 0 0 0 1.528 6.303c.232.763.438 1.373.594 1.815z" fill="#fff" stroke="#f8e287" stroke-width="16"/><path d="m31.114 106.938.117.372a99.04 99.04 0 0 0 2.029 5.73c1.275 3.27 3.19 7.63 5.437 10.46 3.756 4.73 12.1 13.835 24.128 14.968 9.182.865 16.989-.59 31.308-3.259 2.794-.52 5.836-1.087 9.184-1.692 10.868-1.963 17.552-4.936 22.012-7.993a31.788 31.788 0 0 0 5.041-4.288c.448-.465.865-.921 1.211-1.298l.296-.323c.428-.464.693-.735.901-.918 1.3-1.142 2.538-2.981 3.562-4.867a38.235 38.235 0 0 0 2.924-7.044c1.522-5.027 2.384-11.713-.537-17.214-1.685-3.173-1.925-6.608-2.231-11.96-.299-5.207-.679-11.634-3.296-19.48-5.393-16.169-16.037-21.924-24.2-26.083-9.141-4.658-20.8-5.383-37.464-.851-8.914 2.425-16.33 7.788-21.414 12.361a72.983 72.983 0 0 0-5.997 6.066c-.7.798-1.244 1.457-1.619 1.925-.185.23-.33.415-.431.547a43.494 43.494 0 0 0-1.71 1.91 57.165 57.165 0 0 0-4.158 5.608c-3.093 4.743-6.565 11.58-7.703 19.657-1.104 7.829-.451 14.727.473 19.666a55.221 55.221 0 0 0 1.423 5.875c.213.701.4 1.253.537 1.642a24.58 24.58 0 0 0 .177.483Z" fill="#fff" stroke="#221B00" stroke-width="8"/><ellipse cx="8.599" cy="20.781" rx="8.599" ry="20.781" transform="matrix(.97506 -.22192 .16002 .98711 34.832 75.059)" fill="#221B00"/><path fill-rule="evenodd" clip-rule="evenodd" d="M79.256 55.145c-8.367 1.317-15.763 13.657-16.02 26.73-.417 21.079 23.558 27.22 31.778 8.14 3.401-7.895 2.661-21.382-1.521-27.742-3.158-4.8-9.344-7.898-14.237-7.128Zm6.946 8.383c5.8 5.62 7.572 18.06 3.568 25.056-4.705 8.224-17.082 8.808-21.447 1.012l-.938-1.677 1.082 1.12c3.804 3.935 9.078 3.682 14.002-.671 5.992-5.298 7.151-15.16 2.805-23.856-1.558-3.116-1.421-3.261.928-.984Zm-6.6 2.745c1.434 1.66 1.485 5.127.118 8.034-2.897 6.158-9.323 4.46-8.093-2.14 1.022-5.486 5.48-8.781 7.974-5.894Zm42.058 23.3c-5.317.734-8.341 5.044-7.722 11.006.362 3.488 2.103 7.653 4.005 9.581 1.255 1.272 1.242 1.345-.403 2.446-7.445 4.982-16.588 3.188-22.92-4.498-1.568-1.902-1.73-1.863-1.006.244 3.826 11.149 18.507 15.065 26.811 7.152 2.698-2.573 3.437-3.246 5.721-5.212 8.773-7.554 5.62-22.115-4.486-20.72ZM125.547 82.003c4.288-1.617 3.998-9.429 1.375-18.585-2.624-9.155-8.029-15.663-12.317-14.047-4.288 1.616-5.984 9.593-3.516 19.175 2.623 9.155 9.762 15.609 14.458 13.457Zm-2.316-3.705c4.477-1.363 4.325-9.85-.335-18.768-.574-1.097-1.147-2.005-1.276-2.017-.128-.012.155.869.629 1.956 3.01 6.91 3.005 13.654-.012 17.472-1.093 1.384-.729 1.881.994 1.357Zm-5.821-8.89c2.288.214 2.883-4.262.947-7.123-1.472-2.175-2.872-1.323-3.207 1.95-.298 2.928.615 5.02 2.26 5.173Z" fill="#221B00"/></svg>