<svg width="40" height="40" fill="none" xmlns="http://www.w3.org/2000/svg"><rect width="40" height="40" rx="20" fill="#864af9" style="stroke-width:.236687"/><path d="m6.43 25.513.039.106.02.067a24.483 24.483 0 0 0 .501 1.413c.302.774.798 1.928 1.428 2.72.909 1.146 3.1 3.59 6.363 3.897 2.316.218 4.317-.156 7.703-.788.656-.123 1.365-.255 2.138-.395 2.67-.482 4.386-1.226 5.577-2.042a8.471 8.471 0 0 0 1.34-1.14c.115-.12.226-.24.308-.33l.063-.068.105-.112.036-.036c.435-.382.792-.935 1.051-1.411a10.013 10.013 0 0 0 .766-1.845c.383-1.266.673-3.155-.197-4.793l-1.672.888 1.672-.888c-.137-.486-.344-1.13-.42-2.44-.07-1.243-.164-2.872-.826-4.857-1.4-4.194-4.21-5.704-6.196-6.717-2.45-1.249-5.475-1.378-9.546-.271-2.31.628-4.196 2.004-5.453 3.135a18.22 18.22 0 0 0-1.498 1.515 14.598 14.598 0 0 0-.492.59l-.06.065c-.088.095-.208.228-.35.396a14.477 14.477 0 0 0-1.053 1.42C7 14.785 6.104 16.535 5.809 18.63a15.43 15.43 0 0 0 .119 4.961 14.012 14.012 0 0 0 .361 1.492c.055.18.104.325.141.43z" fill="#fff" stroke="#f8e287" stroke-width="3.787"/><path d="m7.364 25.31.028.089a23.441 23.441 0 0 0 .48 1.356c.302.774.755 1.806 1.287 2.476.889 1.12 2.864 3.274 5.71 3.542 2.174.205 4.022-.14 7.411-.77.661-.124 1.381-.258 2.174-.401 2.572-.465 4.154-1.169 5.21-1.892a7.524 7.524 0 0 0 1.193-1.015c.106-.11.205-.218.286-.307l.07-.077a3.14 3.14 0 0 1 .214-.217c.307-.27.6-.706.843-1.152a9.05 9.05 0 0 0 .692-1.667c.36-1.19.564-2.773-.127-4.075-.399-.75-.456-1.564-.528-2.83-.071-1.233-.161-2.754-.78-4.61-1.277-3.828-3.796-5.19-5.728-6.174-2.164-1.103-4.923-1.275-8.867-.202-2.11.574-3.865 1.843-5.069 2.926a17.274 17.274 0 0 0-1.42 1.436 13.484 13.484 0 0 0-.484.585 10.294 10.294 0 0 0-.405.452 13.53 13.53 0 0 0-.984 1.327c-.732 1.123-1.554 2.74-1.823 4.653a14.484 14.484 0 0 0 .111 4.654 13.07 13.07 0 0 0 .337 1.39c.05.167.095.297.127.39a5.818 5.818 0 0 0 .042.114z" fill="#fff" stroke="#221b00" stroke-width="1.893"/><ellipse cx="7.341" cy="24.109" rx="2.035" ry="4.919" transform="matrix(.97506 -.22192 .16002 .98711 0 0)" fill="#221b00" style="stroke-width:.236687"/><path fill-rule="evenodd" clip-rule="evenodd" d="M18.759 13.052c-1.98.312-3.731 3.232-3.792 6.327-.099 4.989 5.576 6.442 7.522 1.926.804-1.868.63-5.06-.36-6.566-.748-1.136-2.212-1.87-3.37-1.687zm1.644 1.984c1.373 1.33 1.792 4.275.844 5.93-1.113 1.947-4.043 2.085-5.076.24l-.222-.397.256.265c.9.932 2.149.872 3.314-.158 1.419-1.254 1.693-3.589.664-5.647-.369-.737-.336-.772.22-.233zm-1.562.65c.34.393.351 1.213.028 1.901-.686 1.458-2.207 1.056-1.916-.506.242-1.299 1.297-2.078 1.887-1.395zm9.954 5.515c-1.258.173-1.974 1.194-1.827 2.605.085.825.497 1.811.948 2.267.297.301.293.319-.096.58-1.762 1.178-3.926.754-5.425-1.065-.37-.45-.41-.441-.238.057.906 2.64 4.38 3.566 6.346 1.693.639-.609.813-.768 1.354-1.233 2.076-1.788 1.33-5.235-1.062-4.905zm.92-1.792c1.015-.383.947-2.232.326-4.399s-1.9-3.707-2.916-3.325c-1.014.383-1.416 2.271-.832 4.539.621 2.167 2.31 3.694 3.422 3.185zm-.548-.877c1.06-.323 1.024-2.331-.08-4.442-.135-.26-.27-.475-.301-.477-.03-.003.036.205.149.463.712 1.635.71 3.231-.003 4.135-.259.327-.173.445.235.321zm-1.378-2.104c.542.05.683-1.009.224-1.686-.348-.515-.68-.313-.759.462-.07.693.146 1.188.535 1.224z" fill="#221b00" style="stroke-width:.236687"/></svg>